{
	"asset":{
		"generator":"Khronos glTF Blender I/O v4.1.62",
		"version":"2.0"
	},
	"scene":0,
	"scenes":[
		{
			"name":"Scene",
			"nodes":[
				27
			]
		}
	],
	"nodes":[
		{
			"name":"head_end",
			"rotation":[
				-4.778241802227967e-08,
				-1.0587911840678754e-22,
				-1.1945604505569918e-08,
				1
			],
			"translation":[
				-3.7339876968189856e-08,
				4.98967170715332,
				-1.9269197082394385e-07
			]
		},
		{
			"children":[
				0
			],
			"name":"head",
			"rotation":[
				4.778241802227967e-08,
				-2.6469779601696886e-23,
				1.1945603617391498e-08,
				1
			],
			"translation":[
				2.531308496145357e-14,
				9.979351043701172,
				-3.5051925806328654e-09
			]
		},
		{
			"children":[
				1
			],
			"name":"neck",
			"rotation":[
				1.3964296385893249e-08,
				9.926167350636332e-24,
				-6.982147304768205e-09,
				1
			],
			"translation":[
				1.3767467521574872e-07,
				6.3931708335876465,
				2.336798843316501e-07
			]
		},
		{
			"name":"arm_left_hand_end",
			"rotation":[
				-1.7462298274040222e-08,
				-4.540197551250458e-07,
				-5.122274160385132e-09,
				1
			],
			"translation":[
				7.152557373046875e-07,
				8.995122909545898,
				-7.152557373046875e-07
			]
		},
		{
			"children":[
				3
			],
			"name":"arm_left_hand",
			"rotation":[
				9.289942681789398e-08,
				2.3050233721733093e-08,
				9.12696123123169e-08,
				1
			],
			"translation":[
				8.940696716308594e-08,
				17.990249633789062,
				-7.748603820800781e-07
			]
		},
		{
			"children":[
				4
			],
			"name":"arm_left_bot",
			"rotation":[
				0.2998420000076294,
				0.838275134563446,
				-0.028347959741950035,
				0.4545173943042755
			],
			"scale":[
				0.9999999403953552,
				1,
				1
			],
			"translation":[
				-1.1567026376724243e-06,
				8.154973983764648,
				1.1362135410308838e-07
			]
		},
		{
			"children":[
				5
			],
			"name":"arm_left_top",
			"rotation":[
				0.24180959165096283,
				0.6236540675163269,
				-0.04389866068959236,
				0.7420624494552612
			],
			"scale":[
				0.9999998807907104,
				0.9999998807907104,
				0.9999998807907104
			],
			"translation":[
				1.1548399925231934e-06,
				8.754250526428223,
				-3.725290298461914e-07
			]
		},
		{
			"children":[
				6
			],
			"name":"shoulder_left",
			"rotation":[
				-0.07029297947883606,
				-5.015820647713554e-09,
				-0.9283850193023682,
				0.36491116881370544
			],
			"scale":[
				0.9999995231628418,
				0.9999999403953552,
				0.9999999403953552
			],
			"translation":[
				6.611263275146484,
				1.6194427013397217,
				-2.7730140686035156
			]
		},
		{
			"name":"arm_right_hand_end",
			"rotation":[
				-4.6566135836201283e-08,
				2.849847078323364e-07,
				-2.9802322387695312e-08,
				1
			],
			"scale":[
				1,
				0.9999999403953552,
				0.9999999403953552
			],
			"translation":[
				8.344650268554688e-07,
				9.024433135986328,
				1.1920928955078125e-07
			]
		},
		{
			"children":[
				8
			],
			"name":"arm_right_hand",
			"rotation":[
				6.705523247774181e-08,
				5.364418029785156e-07,
				1.0244549208948683e-08,
				1
			],
			"scale":[
				1,
				0.9999999403953552,
				0.9999999403953552
			],
			"translation":[
				-3.5762786865234375e-06,
				18.048879623413086,
				-8.344650268554688e-07
			]
		},
		{
			"children":[
				9
			],
			"name":"arm_right_bot",
			"rotation":[
				0.24940507113933563,
				-0.4919206202030182,
				-0.06244763359427452,
				0.8318122029304504
			],
			"scale":[
				1,
				1.0000001192092896,
				1
			],
			"translation":[
				-1.4889519661664963e-07,
				7.57924747467041,
				-2.4400651454925537e-07
			]
		},
		{
			"children":[
				10
			],
			"name":"arm_right_top",
			"rotation":[
				0.2821240723133087,
				-0.9494243264198303,
				-0.13717305660247803,
				0.013528943061828613
			],
			"scale":[
				1,
				1.000000238418579,
				1.0000001192092896
			],
			"translation":[
				-1.9185245037078857e-06,
				7.502223491668701,
				2.5331974029541016e-07
			]
		},
		{
			"children":[
				11
			],
			"name":"shoulder_right",
			"rotation":[
				-0.11159516870975494,
				-1.459945675463814e-08,
				0.9568738341331482,
				0.26821452379226685
			],
			"scale":[
				1.0000004768371582,
				1,
				0.9999999403953552
			],
			"translation":[
				-11.42434310913086,
				1.6194430589675903,
				-2.7730140686035156
			]
		},
		{
			"children":[
				2,
				7,
				12
			],
			"name":"body_top2",
			"rotation":[
				-2.6382469542340914e-08,
				-3.970466940254533e-23,
				1.3191234771170457e-08,
				1
			],
			"translation":[
				-2.9841057624935274e-08,
				9.59958267211914,
				-1.0718548537624883e-07
			]
		},
		{
			"children":[
				13
			],
			"name":"body_top1",
			"rotation":[
				1.2418173156447665e-08,
				1.6543612251060553e-23,
				-6.209087022313042e-09,
				1
			],
			"translation":[
				0,
				10.467731475830078,
				-5.699595817532099e-08
			]
		},
		{
			"children":[
				14
			],
			"name":"body_top0",
			"rotation":[
				-4.547473508864641e-13,
				0,
				0,
				1
			],
			"translation":[
				-1.1920928955078125e-07,
				11.389877319335938,
				-3.704432174345129e-07
			]
		},
		{
			"name":"leg_left_foot_end",
			"rotation":[
				-5.8060400931481126e-08,
				8.393623147640028e-07,
				-1.8440289295540424e-07,
				1
			],
			"translation":[
				-8.878059816197492e-07,
				7.491563320159912,
				2.4560313249821775e-07
			]
		},
		{
			"children":[
				16
			],
			"name":"leg_left_foot",
			"rotation":[
				5.491294245985046e-07,
				-0.18437589704990387,
				-0.12244375795125961,
				0.9751989841461182
			],
			"scale":[
				1,
				0.9999998211860657,
				0.9999998807907104
			],
			"translation":[
				-1.6689300537109375e-06,
				18.353452682495117,
				-2.384185791015625e-07
			]
		},
		{
			"children":[
				17
			],
			"name":"leg_left_bot",
			"rotation":[
				0.0992763414978981,
				0.8219358921051025,
				0.020756151527166367,
				0.5604772567749023
			],
			"scale":[
				1,
				0.9999998211860657,
				1
			],
			"translation":[
				1.7881393432617188e-07,
				7.455870628356934,
				-6.742775440216064e-07
			]
		},
		{
			"children":[
				18
			],
			"name":"leg_left_top",
			"rotation":[
				-0.7103671431541443,
				4.2740032313304255e-07,
				-0.7006646990776062,
				0.06668974459171295
			],
			"scale":[
				0.9999939799308777,
				0.9999999403953552,
				0.9999938011169434
			],
			"translation":[
				8.4935884475708,
				-4.468749523162842,
				-6.805997371673584
			]
		},
		{
			"name":"leg_right_foot_end",
			"rotation":[
				7.823108205684548e-08,
				8.232890991166641e-07,
				-5.215406062575312e-08,
				1
			],
			"scale":[
				1,
				1.0000001192092896,
				1.0000001192092896
			],
			"translation":[
				4.76837158203125e-07,
				9.072431564331055,
				-7.152557373046875e-07
			]
		},
		{
			"children":[
				20
			],
			"name":"leg_right_foot",
			"rotation":[
				-0.12170922011137009,
				0.5048543810844421,
				-0.14677447080612183,
				0.8418825268745422
			],
			"scale":[
				1,
				0.9999998807907104,
				0.9999999403953552
			],
			"translation":[
				-1.7881393432617188e-06,
				19.424470901489258,
				4.76837158203125e-07
			]
		},
		{
			"children":[
				21
			],
			"name":"leg_right_bot",
			"rotation":[
				0.07946032285690308,
				-0.40413686633110046,
				-0.049997564405202866,
				0.9098680019378662
			],
			"scale":[
				1,
				0.9999999403953552,
				1
			],
			"translation":[
				-1.0728836059570312e-06,
				7.716306686401367,
				-4.76837158203125e-07
			]
		},
		{
			"children":[
				22
			],
			"name":"leg_right_top",
			"rotation":[
				-0.31458425521850586,
				-5.758647247944282e-08,
				0.9380103945732117,
				0.14551036059856415
			],
			"scale":[
				0.9999974966049194,
				0.9999999403953552,
				0.9999998211860657
			],
			"translation":[
				-5.357484817504883,
				-4.468749523162842,
				-6.805997371673584
			]
		},
		{
			"children":[
				15,
				19,
				23
			],
			"name":"body",
			"rotation":[
				-5.006074843549868e-06,
				0,
				0,
				1
			],
			"translation":[
				0,
				23.479541778564453,
				-0.00023464781406801194
			]
		},
		{
			"children":[
				24
			],
			"name":"root",
			"rotation":[
				-0.7071031928062439,
				0,
				0,
				0.7071103453636169
			],
			"translation":[
				1.893860101699829,
				3.4387905597686768,
				42.93413543701172
			]
		},
		{
			"mesh":0,
			"name":"model",
			"skin":0
		},
		{
			"children":[
				26,
				25
			],
			"name":"rig",
			"rotation":[
				0.7071068286895752,
				0,
				0,
				0.7071068286895752
			]
		}
	],
	"materials":[
		{
			"doubleSided":true,
			"name":"tripo_material_bc722122-4585-465d-a06a-07acb4ffa5d3.001",
			"normalTexture":{
				"index":0
			},
			"pbrMetallicRoughness":{
				"baseColorTexture":{
					"index":1
				},
				"metallicFactor":0,
				"roughnessFactor":0.5
			}
		}
	],
	"meshes":[
		{
			"name":"model",
			"primitives":[
				{
					"attributes":{
						"POSITION":0,
						"NORMAL":1,
						"TEXCOORD_0":2,
						"JOINTS_0":3,
						"WEIGHTS_0":4
					},
					"indices":5,
					"material":0
				}
			]
		}
	],
	"textures":[
		{
			"sampler":0,
			"source":0
		},
		{
			"sampler":0,
			"source":1
		}
	],
	"images":[
		{
			"bufferView":6,
			"mimeType":"image/jpeg",
			"name":"NormalGL_bc722122-4585-465d-a06a-07acb4ffa5d3"
		},
		{
			"bufferView":7,
			"mimeType":"image/jpeg",
			"name":"Color_bc722122-4585-465d-a06a-07acb4ffa5d3"
		}
	],
	"skins":[
		{
			"inverseBindMatrices":6,
			"joints":[
				25,
				24,
				15,
				14,
				13,
				2,
				1,
				0,
				7,
				6,
				5,
				4,
				3,
				12,
				11,
				10,
				9,
				8,
				19,
				18,
				17,
				16,
				23,
				22,
				21,
				20
			],
			"name":"rig"
		}
	],
	"accessors":[
		{
			"bufferView":0,
			"componentType":5126,
			"count":12230,
			"max":[
				21.647111892700195,
				42.27326583862305,
				13.142319679260254
			],
			"min":[
				-21.282499313354492,
				-42.93413162231445,
				-16.3454532623291
			],
			"type":"VEC3"
		},
		{
			"bufferView":1,
			"componentType":5126,
			"count":12230,
			"type":"VEC3"
		},
		{
			"bufferView":2,
			"componentType":5126,
			"count":12230,
			"type":"VEC2"
		},
		{
			"bufferView":3,
			"componentType":5121,
			"count":12230,
			"type":"VEC4"
		},
		{
			"bufferView":4,
			"componentType":5126,
			"count":12230,
			"type":"VEC4"
		},
		{
			"bufferView":5,
			"componentType":5123,
			"count":59979,
			"type":"SCALAR"
		},
		{
			"bufferView":8,
			"componentType":5126,
			"count":26,
			"type":"MAT4"
		}
	],
	"bufferViews":[
		{
			"buffer":0,
			"byteLength":146760,
			"byteOffset":0,
			"target":34962
		},
		{
			"buffer":0,
			"byteLength":146760,
			"byteOffset":146760,
			"target":34962
		},
		{
			"buffer":0,
			"byteLength":97840,
			"byteOffset":293520,
			"target":34962
		},
		{
			"buffer":0,
			"byteLength":48920,
			"byteOffset":391360,
			"target":34962
		},
		{
			"buffer":0,
			"byteLength":195680,
			"byteOffset":440280,
			"target":34962
		},
		{
			"buffer":0,
			"byteLength":119958,
			"byteOffset":635960,
			"target":34963
		},
		{
			"buffer":0,
			"byteLength":157770,
			"byteOffset":755920
		},
		{
			"buffer":0,
			"byteLength":271282,
			"byteOffset":913692
		},
		{
			"buffer":0,
			"byteLength":1664,
			"byteOffset":1184976
		}
	],
	"samplers":[
		{
			"magFilter":9729,
			"minFilter":9987
		}
	],
	"buffers":[
		{
			"byteLength":1186640,
			"uri":"data:application/octet-stream;base64,"
		}
	]
}
